/* XPM */
static char *_73c239555874234c2a910b2302a8897SKWZmGcM93y0FYXB[] = {
/* columns rows colors chars-per-pixel */
"192 64 11 1 ",
"  c None",
". c black",
"o c #743F39",
"O c #262B44",
"+ c #3A4466",
"& c #B86F50",
"> c #C28569",
", c #E4A672",
"< c #5A6988",
"4 c #E8B796",
"7 c white",
/* pixels */
"                                                                                                                                                                                                ",
"..    ...       ..    ...       ..    ...                       ..    ...       ..    ...       ..    ...                       ..    ...       ..    ...       ..    ...                       ",
"oo....o&&.      oo....o&&.      oo....o&&.      ..    ...       &&....&,,.      &&....&,,.      &&....&,,.      ..    ...       OO....O++.      OO....O++.      OO....O++.      ..    ...       ",
"o.ooooo.&..     o.ooooo.&..     o.ooooo.&..     oo....o&&..     &.&&&&&.,..     &.&&&&&.,..     &.&&&&&.,..     &&....&,,..     O.OOOOO.+..     O.OOOOO.+..     O.OOOOO.+..     OO....O++..     ",
".&oo&&ooo.o.... .&oo&&ooo.o.... .&oo&&ooo.o.... o.ooooo.&.o.... .,&&,,&&&.&.... .,&&,,&&&.&.... .,&&,,&&&.&.... &.&&&&&.,.&.... .+OO++OOO.O.... .+OO++OOO.O.... .+OO++OOO.O.... O.OOOOO.+.O.... ",
".oo.&&&o..o&.oo..oo.&&&o..o&.oo..oo.&&&o..o&.oo..&oo&&ooo.o&&oo..&&.,,,&..&,.&&..&&.,,,&..&,.&&..&&.,,,&..&,.&&..,&&,,&&&.&,,&&..OO.+++O..O+.OO..OO.+++O..O+.OO..OO.+++O..O+.OO..+OO++OOO.O++OO.",
".>4..7.&&oo&&o&o.>4..7.&&oo&oo&o.>4..7.&&oo&&o&o.oo.&&&o..&&&&&o.+<..7.,,&&,,&,&.+<..7.,,&&,&&,&.+<..7.,,&&,,&,&.&&.,,,&..,,,,,&.>4..7.++OO++O+O.>4..7.++OO+OO+O.>4..7.++OO++O+O.OO.+++O..+++++O",
">444..o&&o&&&&&&>444..o&&o&&&&&&>444..o&&o&&&&&&.>4..7.&&o&&&&&&+<<<..&,,&,,,,,,+<<<..&,,&,,,,,,+<<<..&,,&,,,,,,.+<..7.,,&,,,,,,>444..O++O++++++>444..O++O++++++>444..O++O++++++.>4..7.++O++++++",
"..44oo&&&o&&&o&&..44oo&&&o&&&oo&..44oo&&&o&&&o&&>444..o&&&&&&.&&..<<&&,,,&,,,&,,..<<&&,,,&,,,&&,..<<&&,,,&,,,&,,+<<<..&,,,,,,.,,..44OO+++O+++O++..44OO+++O+++OO+..44OO+++O+++O++>444..O++++++.++",
">>4>oo&oo&&o&.oo>>4>oo&oo&o&&ooo>>4>oo&oo&&o&.oo..44oo&&&o&&o.o&++<+&&,&&,,&,.&&++<+&&,&&,&,,&&&++<+&&,&&,,&,.&&..<<&&,,,&,,&.&,>>4>OO+OO++O+.OO>>4>OO+OO+O++OOO>>4>OO+OO++O+.OO..44OO+++O++O.O+",
"........&&oo..&o........&&oo..&&........&&oo..&o>>4>oo&ooo.ooo&o........,,&&..,&........,,&&..,,........,,&&..,&++<+&&,&&&.&&&,&........++OO..+O........++OO..++........++OO..+O>>4>OO+OOO.OOO+O",
" .o...ooo..&.o&o .o...oo..&&o..& .o...ooo..&.o&o........o..&o&&o .&...&&&..,.&,& .&...&&..,,&.., .&...&&&..,.&,&........&..,&,,& .O...OOO..+.O+O .O...OO..++O..+ .O...OOO..+.O+O........O..+O++O",
" .oooooo..&&oooo .oo.oo..&&ooooo .oooooo..&&oooo .o....oo.o&.&oo .&&&&&&..,,&&&& .&&.&&..,,&&&&& .&&&&&&..,,&&&& .&....&&.&,.,&& .OOOOOO..++OOOO .OO.OO..++OOOOO .OOOOOO..++OOOO .O....OO.O+.+OO",
"  .o...ooo&...o.  .o...oo&.....o  .o...ooo&...o.  .o....oooo..oo  .&...&&&,...&.  .&...&&,.....&  .&...&&&,...&.  .&....&&&&..&&  .O...OOO+...O.  .O...OO+.....O  .O...OOO+...O.  .O....OOOO..OO",
"  .oo...oo...oo.   .o..oo..  .oo  .oo...oo...oo.  .oo....oo..oo.  .&&...&&...&&.   .&..&&..  .&&  .&&...&&...&&.  .&&....&&..&&.  .OO...OO...OO.   .O..OO..  .OO  .OO...OO...OO.  .OO....OO..OO.",
"   .o. .o.o. .o.    .o.o.o.   .o   .o. .o.o. .o.  .o. .o.o. .o.    .&. .&.&. .&.    .&.&.&.   .&   .&. .&.&. .&.  .&. .&.&. .&.    .O. .O.O. .O.    .O.O.O.   .O   .O. .O.O. .O.  .O. .O.O. .O. ",
"                                                                                                                                                                                                ",
"       ...    ..       ...    ..       ...    ..                       ...    ..       ...    ..       ...    ..                       ...    ..       ...    ..       ...    ..                ",
"      .&&o....oo      .&&o....oo      .&&o....oo       ...    ..      .,,&....&&      .,,&....&&      .,,&....&&       ...    ..      .++O....OO      .++O....OO      .++O....OO       ...    ..",
"     ..&.ooooo.o     ..&.ooooo.o     ..&.ooooo.o     ..&&o....oo     ..,.&&&&&.&     ..,.&&&&&.&     ..,.&&&&&.&     ..,,&....&&     ..+.OOOOO.O     ..+.OOOOO.O     ..+.OOOOO.O     ..++O....OO",
" ....o.ooo&&oo&. ....o.ooo&&oo&. ....o.ooo&&oo&. ....o.&.ooooo.o ....&.&&&,,&&,. ....&.&&&,,&&,. ....&.&&&,,&&,. ....&.,.&&&&&.& ....O.OOO++OO+. ....O.OOO++OO+. ....O.OOO++OO+. ....O.+.OOOOO.O",
".oo.&o..o&&&.oo..oo.&o..o&&&.oo..oo.&o..o&&&.oo..oo&&o.ooo&&oo&..&&.,&..&,,,.&&..&&.,&..&,,,.&&..&&.,&..&,,,.&&..&&,,&.&&&,,&&,..OO.+O..O+++.OO..OO.+O..O+++.OO..OO.+O..O+++.OO..OO++O.OOO++OO+.",
"o&o&&oo&&.7..4>.o&oo&oo&&.7..4>.o&o&&oo&&.7..4>.o&&&&&..o&&&.oo.&,&,,&&,,.7..<+.&,&&,&&,,.7..<+.&,&,,&&,,.7..<+.&,,,,,..&,,,.&&.O+O++OO++.7..4>.O+OO+OO++.7..4>.O+O++OO++.7..4>.O+++++..O+++.OO.",
"&&&&&&o&&o..444>&&&&&&o&&o..444>&&&&&&o&&o..444>&&&&&&o&&.7..4>.,,,,,,&,,&..<<<+,,,,,,&,,&..<<<+,,,,,,&,,&..<<<+,,,,,,&,,.7..<+.++++++O++O..444>++++++O++O..444>++++++O++O..444>++++++O++.7..4>.",
"&&o&&&o&&&oo44..&oo&&&o&&&oo44..&&o&&&o&&&oo44..&&.&&&&&&o..444>,,&,,,&,,,&&<<..,&&,,,&,,,&&<<..,,&,,,&,,,&&<<..,,.,,,,,,&..<<<+++O+++O+++OO44..+OO+++O+++OO44..++O+++O+++OO44..++.++++++O..444>",
"oo.&o&&oo&oo>4>>ooo&&o&oo&oo>4>>oo.&o&&oo&oo>4>>&o.o&&o&&&oo44..&&.,&,,&&,&&+<++&&&,,&,&&,&&+<++&&.,&,,&&,&&+<++,&.&,,&,,,&&<<..OO.+O++OO+OO>4>>OOO++O+OO+OO>4>>OO.+O++OO+OO>4>>+O.O++O+++OO44..",
"o&..oo&&........&&..oo&&........o&..oo&&........o&ooo.ooo&oo>4>>&,..&&,,........,,..&&,,........&,..&&,,........&,&&&.&&&,&&+<++O+..OO++........++..OO++........O+..OO++........O+OOO.OOO+OO>4>>",
"o&o.&..ooo...o. &..o&&..oo...o. o&o.&..ooo...o. o&&o&..o........&,&.,..&&&...&. ,..&,,..&&...&. &,&.,..&&&...&. &,,&,..&........O+O.+..OOO...O. +..O++..OO...O. O+O.+..OOO...O. O++O+..O........",
"oooo&&..oooooo. ooooo&&..oo.oo. oooo&&..oooooo. oo&.&o.oo....o. &&&&,,..&&&&&&. &&&&&,,..&&.&&. &&&&,,..&&&&&&. &&,.,&.&&....&. OOOO++..OOOOOO. OOOOO++..OO.OO. OOOO++..OOOOOO. OO+.+O.OO....O. ",
".o...&ooo...o.  o.....&oo...o.  .o...&ooo...o.  oo..oooo....o.  .&...,&&&...&.  &.....,&&...&.  .&...,&&&...&.  &&..&&&&....&.  .O...+OOO...O.  O.....+OO...O.  .O...+OOO...O.  OO..OOOO....O.  ",
".oo...oo...oo.  oo.  ..oo..o.   .oo...oo...oo.  .oo..oo....oo.  .&&...&&...&&.  &&.  ..&&..&.   .&&...&&...&&.  .&&..&&....&&.  .OO...OO...OO.  OO.  ..OO..O.   .OO...OO...OO.  .OO..OO....OO.  ",
".o. .o.o. .o.   o.   .o.o.o.    .o. .o.o. .o.    .o. .o.o. .o.  .&. .&.&. .&.   &.   .&.&.&.    .&. .&.&. .&.    .&. .&.&. .&.  .O. .O.O. .O.   O.   .O.O.O.    .O. .O.O. .O.    .O. .O.O. .O.  ",
"                                                                                                                                                                                                ",
"   ...    ...      ...    ...      ...    ...                      ...    ...      ...    ...      ...    ...                      ...    ...      ...    ...      ...    ...                   ",
"  .&&o....o&&.    .&&o....o&&.    .&&o....o&&.     ...    ...     .,,&....&,,.    .,,&....&,,.    .,,&....&,,.     ...    ...     .++O....O++.    .++O....O++.    .++O....O++.     ...    ...   ",
"  .&.o&oo&o.&.    .&.o&oo&o.&.    .&.o&oo&o.&.    .&&o....o&&.    .,.&,&&,&.,.    .,.&,&&,&.,.    .,.&,&&,&.,.    .,,&....&,,.    .+.O+OO+O.+.    .+.O+OO+O.+.    .+.O+OO+O.+.    .++O....O++.  ",
" ..oo&&&&&&oo..  ..oo&&&&&&oo..  ..oo&&&&&&oo..  ..&.o&oo&o.&..  ..&&,,,,,,&&..  ..&&,,,,,,&&..  ..&&,,,,,,&&..  ..,.&,&&,&.,..  ..OO++++++OO..  ..OO++++++OO..  ..OO++++++OO..  ..+.O+OO+O.+.. ",
".o..&&&oo&&&..o..o..&&&oo&&&..o..o..&&&oo&&&..o..o.oo&&&&&&oo.o..&..,,,&&,,,..&..&..,,,&&,,,..&..&..,,,&&,,,..&..&.&&,,,,,,&&.&..O..+++OO+++..O..O..+++OO+++..O..O..+++OO+++..O..O.OO++++++OO.O.",
".o.o.7.44.7.o.o..o.o.7.44.7.o.o..o.o.7.44.7.o.o..o..&&&oo&&&..o..&.&.7.<<.7.&.&..&.&.7.<<.7.&.&..&.&.7.<<.7.&.&..&..,,,&&,,,..&..O.O.7.44.7.O.O..O.O.7.44.7.O.O..O.O.7.44.7.O.O..O..+++OO+++..O.",
".o.&..4444..&.o..&.&..4444..&.o..o.&..4444..&.o..o.o.7.44.7.o.o..&.,..<<<<..,.&..,.,..<<<<..,.&..&.,..<<<<..,.&..&.&.7.<<.7.&.&..O.+..4444..+.O..+.+..4444..+.O..O.+..4444..+.O..O.O.7.44.7.O.O.",
".oo&&o4..4o&&oo..&o&&o4..4o&&oo..oo&&o4..4o&&oo..o.&..4444..&.&..&&,,&<..<&,,&&..,&,,&<..<&,,&&..&&,,&<..<&,,&&..&.,..<<<<..,.,..OO++O4..4O++OO..+O++O4..4O++OO..OO++O4..4O++OO..O.+..4444..+.+.",
".o&o&o4>>4o&o&o..&&o&o4>>4o&o&o..o&o&o4>>4o&o&o..oo&&o4..4o&&o&..&,&,&<++<&,&,&..,,&,&<++<&,&,&..&,&,&<++<&,&,&..&&,,&<..<&,,&,..O+O+O4>>4O+O+O..++O+O4>>4O+O+O..O+O+O4>>4O+O+O..OO++O4..4O++O+.",
"..&&o......o&&...&&&oo.....o&&. ..&&o......o&&.. .oo&o4>>4o&&&&...,,&......&,,...,,,&&.....&,,. ..,,&......&,,.. .&&,&<++<&,,,,...++O......O++...+++OO.....O++. ..++O......O++.. .OO+O4>>4O++++.",
".oo&&o....o&&oo..o&o&&....oooo. .oo&&o....o&&oo. .ooo.....ooo&o..&&,,&....&,,&&..&,&,,....&&&&. .&&,,&....&,,&&. .&&&.....&&&,&..OO++O....O++OO..O+O++....OOOO. .OO++O....O++OO. .OOO.....OOO+O.",
" .&.oooooooo.&.  .o&o&&ooo.o&.   .&.oooooooo.&.   .&o.ooo&&o&o.  .,.&&&&&&&&.,.  .&,&,,&&&.&,.   .,.&&&&&&&&.,.   .,&.&&&,,&,&.  .+.OOOOOOOO.+.  .O+O++OOO.O+.   .+.OOOOOOOO.+.   .+O.OOO++O+O. ",
" .&&.o.oo.o.&&.  ..&&..oo..&o.   .&&.o.oo.o.&&.   .o&..oo..&&..  .,,.&.&&.&.,,.  ..,,..&&..,&.   .,,.&.&&.&.,,.   .&,..&&..,,..  .++.O.OO.O.++.  ..++..OO..+O.   .++.O.OO.O.++.   .O+..OO..++.. ",
" ..&o......o&..  .o.&&....oo.    ..&o......o&..    .oo....&&.o.  ..,&......&,..  .&.,,....&&.    ..,&......&,..    .&&....,,.&.  ..+O......O+..  .O.++....OO.    ..+O......O+..    .OO....++.O. ",
" .o.o.    .o.o.  .o..&.  .o.     .o.o.    .o.o.     .o.  .&..o.  .&.&.    .&.&.  .&..,.  .&.     .&.&.    .&.&.     .&.  .,..&.  .O.O.    .O.O.  .O..+.  .O.     .O.O.    .O.O.     .O.  .+..O. ",
"                                                                                                                                                                                                ",
"   ...    ...      ...    ...      ...    ...                      ...    ...      ...    ...      ...    ...                      ...    ...      ...    ...      ...    ...                   ",
"  .ooo....ooo.    .ooo....ooo.    .ooo....ooo.     ...    ...     .&&&....&&&.    .&&&....&&&.    .&&&....&&&.     ...    ...     .OOO....OOO.    .OOO....OOO.    .OOO....OOO.     ...    ...   ",
"  .oo......oo.    .oo......oo.    .oo......oo.    .ooo....ooo.    .&&......&&.    .&&......&&.    .&&......&&.    .&&&....&&&.    .OO......OO.    .OO......OO.    .OO......OO.    .OOO....OOO.  ",
" .o.oo.oo.oo.o.  .o.oo.oo.oo.o.  .o.oo.oo.oo.o.  ...oo.oo.oo...  .&.&&.&&.&&.&.  .&.&&.&&.&&.&.  .&.&&.&&.&&.&.  ...&&.&&.&&...  .O.OO.OO.OO.O.  .O.OO.OO.OO.O.  .O.OO.OO.OO.O.  ...OO.OO.OO... ",
"...&o&&oo&&o&......&&o&&o&&o&o.....&o&&oo&&o&.....o&o&&o&&o&&......,&,,&&,,&,......,,&,,&,,&,&.....,&,,&&,,&,.....&,&,,&,,&,,......+O++OO++O+......++O++O++O+O.....+O++OO++O+.....O+O++O++O++...",
"..&&&&&&&&&&&&....&&&&&&&&&&&&....&&&&&&&&&&&&....&&&&&&&&&&&&....,,,,,,,,,,,,....,,,,,,,,,,,,....,,,,,,,,,,,,....,,,,,,,,,,,,....++++++++++++....++++++++++++....++++++++++++....++++++++++++..",
".o&o&&&&&&&&o&o..oo&&&&&&&&&&oo..o&o&&&&&&&&o&o..oo&&&&&&&&&&oo..&,&,,,,,,,,&,&..&&,,,,,,,,,,&&..&,&,,,,,,,,&,&..&&,,,,,,,,,,&&..O+O++++++++O+O..OO++++++++++OO..O+O++++++++O+O..OO++++++++++OO.",
".ooo&&&&&&&&ooo..ooo&&&&&&&&&oo..ooo&&&&&&&&ooo..oo&&&&&&&&&ooo..&&&,,,,,,,,&&&..&&&,,,,,,,,,&&..&&&,,,,,,,,&&&..&&,,,,,,,,,&&&..OOO++++++++OOO..OOO+++++++++OO..OOO++++++++OOO..OO+++++++++OOO.",
".oo&&&o&&o&&&oo..oo&&&&&&o&&&.o..oo&&&o&&o&&&oo..o.&&&o&&&&&&oo..&&,,,&,,&,,,&&..&&,,,,,,&,,,.&..&&,,,&,,&,,,&&..&.,,,&,,,,,,&&..OO+++O++O+++OO..OO++++++O+++.O..OO+++O++O+++OO..O.+++O++++++OO.",
".o.&&oo&&oo&&.o..o.&&o&&oo&&o.o..o.&&oo&&oo&&.o..o.o&&oo&&o&&.o..&.,,&&,,&&,,.&..&.,,&,,&&,,&.&..&.,,&&,,&&,,.&..&.&,,&&,,&,,.&..O.++OO++OO++.O..O.++O++OO++O.O..O.++OO++OO++.O..O.O++OO++O++.O.",
".o..&&o..o&&..o..o..&oo..oo&ooo..o..&&o..o&&..o..ooo&oo..oo&..o..&..,,&..&,,..&..&..,&&..&&,&&&..&..,,&..&,,..&..&&&,&&..&&,..&..O..++O..O++..O..O..+OO..OO+OOO..O..++O..O++..O..OOO+OO..OO+..O.",
" .o.o&....&o.o.  .o.oo....oo&&o. .o.o&....&o.o. .o&&oo....oo.o.  .&.&,....,&.&.  .&.&&....&&,,&. .&.&,....,&.&. .&,,&&....&&.&.  .O.O+....+O.O.  .O.OO....OO++O. .O.O+....+O.O. .O++OO....OO.O. ",
" .ooo..oo..ooo.  .ooo..oo..o&&.. .ooo..oo..ooo. ..&&o..oo..ooo.  .&&&..&&..&&&.  .&&&..&&..&,,.. .&&&..&&..&&&. ..,,&..&&..&&&.  .OOO..OO..OOO.  .OOO..OO..O++.. .OOO..OO..OOO. ..++O..OO..OOO. ",
" .oo........oo.   .o........&o.. .oo........oo. ..o&........o.   .&&........&&.   .&........,&.. .&&........&&. ..&,........&.   .OO........OO.   .O........+O.. .OO........OO. ..O+........O.  ",
" .o.o.    .o.o.    ..      .o.o. .o.o.    .o.o. .o.o.      ..    .&.&.    .&.&.    ..      .&.&. .&.&.    .&.&. .&.&.      ..    .O.O.    .O.O.    ..      .O.O. .O.O.    .O.O. .O.O.      ..   "
};
